# xmcd
#
# Track frame offsets:
#	150
#	31231
#	53283
#	80173
#	97784
#	141606
#	168074
# Disc length: 2610 seconds
# Revision: 1
# Processed by: cddbd v1.5.1PL2 Copyright (c) Steve Scherf et al.
#
# Submitted via: libkcddb 0.3
#
DISCID=4c0a3007
DTITLE=Alvin Youngblood Hart - Variety Playhouse, Atlanta GA 31 Dec 2004
DYEAR=2005
DGENRE=Alt. Rock
TTITLE0=Big Mama's Door
TTITLE1=My World is Round
TTITLE2=Stomp Dance
TTITLE3=Lord I'm Just a Country Boy
TTITLE4=In My Time of Dyin'
TTITLE5=Sway
TTITLE6=Shoot Me a Grin
EXTD=Bootleg
EXTT0=
EXTT1=
EXTT2=
EXTT3=
EXTT4=
EXTT5=
EXTT6=
PLAYORDER=
